<svg xmlns="http://www.w3.org/2000/svg" viewBox="28 0 258 258">
  <g fill="#172B36">
    <path d="M213.43,141.49l-43.35-25.03c-8.18-4.72-18.26-4.72-26.44,0l-43.35,25.03c-8.18,4.72-13.22,13.45-13.22,22.9v50.06c0,9.45,5.04,18.17,13.22,22.9l43.35,25.03c8.18,4.72,18.26,4.72,26.44,0l43.35-25.03c8.18-4.72,13.22-13.45,13.22-22.9v-50.06c0-9.45-5.04-18.17-13.22-22.9Z"/>
    <path d="M265.94,57.44L174.76,4.79c-11.07-6.39-24.71-6.39-35.79,0L47.78,57.44c-11.07,6.39-17.89,18.21-17.89,30.99v105.29c0,12.78,6.82,24.6,17.89,30.99l15.87,9.16c-.39-1.81-.6-3.67-.6-5.56v-77.79c0-9.45,5.04-18.17,13.22-22.9l67.37-38.9c8.18-4.72,18.26-4.72,26.44,0l67.37,38.9c8.18,4.72,13.22,13.45,13.22,22.9v77.79c0,1.89-.21,3.76-.6,5.56l15.87-9.16c11.07-6.39,17.89-18.21,17.89-30.99v-105.29c0-12.78-6.82-24.6-17.89-30.99Z"/>
  </g>
  <rect x="68.78" y="68.1" width="24.73" height="38.97" rx="10.49" ry="10.49" fill="#ffec5f"/>
</svg>
